<svg width="400" height="300" xmlns="http://www.w3.org/2000/svg">
  <!-- Yellow lined paper background -->
  <rect x="50" y="50" width="300" height="200" fill="#FFFACD" stroke="#333" stroke-width="2"/>
  
  <!-- Paper lines -->
  <line x1="50" y1="100" x2="350" y2="100" stroke="#E0E0E0" stroke-width="1"/>
  <line x1="50" y1="130" x2="350" y2="130" stroke="#E0E0E0" stroke-width="1"/>
  <line x1="50" y1="160" x2="350" y2="160" stroke="#E0E0E0" stroke-width="1"/>
  <line x1="50" y1="190" x2="350" y2="190" stroke="#E0E0E0" stroke-width="1"/>
  
  <!-- Hand with red bracelet -->
  <g id="hand">
    <path d="M250,180 Q270,170 280,160 L290,170 L285,190 L270,195 L250,185 Z" fill="#FDBCB4"/>
    <rect x="265" y="175" width="20" height="5" fill="#FF0000" rx="2"/>
    
    <!-- Black marker -->
    <rect x="275" y="165" width="8" height="40" fill="#000" transform="rotate(-30 279 185)"/>
    <polygon points="275,205 279,215 283,205" fill="#000" transform="rotate(-30 279 185)"/>
    
    <animateTransform
      attributeName="transform"
      type="translate"
      values="-150,0; -75,0; 0,0; 0,0"
      dur="4s"
      repeatCount="indefinite"/>
  </g>
  
  <!-- Letter W -->
  <path d="M100,120 L110,150 L120,130 L130,150 L140,120" 
        fill="none" 
        stroke="#000" 
        stroke-width="3" 
        stroke-linecap="round"
        opacity="0">
    <animate attributeName="opacity" values="0;0;1;1;1" dur="4s" repeatCount="indefinite"/>
    <animate attributeName="stroke-dasharray" values="0 100;60 40;60 40;60 40;60 40" dur="4s" repeatCount="indefinite"/>
  </path>
  
  <!-- Letter I -->
  <path d="M180,120 L180,150" 
        fill="none" 
        stroke="#000" 
        stroke-width="3" 
        stroke-linecap="round"
        opacity="0">
    <animate attributeName="opacity" values="0;0;0;1;1" dur="4s" repeatCount="indefinite"/>
    <animate attributeName="stroke-dasharray" values="0 30;0 30;30 0;30 0;30 0" dur="4s" repeatCount="indefinite"/>
  </path>
  
  <!-- Letter N -->
  <path d="M220,150 L220,120 L240,150 L240,120" 
        fill="none" 
        stroke="#000" 
        stroke-width="3" 
        stroke-linecap="round"
        opacity="0">
    <animate attributeName="opacity" values="0;0;0;0;1" dur="4s" repeatCount="indefinite"/>
    <animate attributeName="stroke-dasharray" values="0 90;0 90;0 90;90 0;90 0" dur="4s" repeatCount="indefinite"/>
  </path>
  
  <!-- Camera zoom effect -->
  <rect x="0" y="0" width="400" height="300" fill="none" stroke="#000" stroke-width="4">
    <animate attributeName="stroke-width" values="4;4;4;20;4" dur="4s" repeatCount="indefinite"/>
    <animate attributeName="opacity" values="0;0;0;0.3;0" dur="4s" repeatCount="indefinite"/>
  </rect>
</svg>