<svg width="400" height="300" xmlns="http://www.w3.org/2000/svg">
  <!-- Background with fabric pattern -->
  <rect width="400" height="300" fill="#E6E6FA"/>
  <rect x="0" y="0" width="400" height="50" fill="#87CEEB" opacity="0.5"/>
  <rect x="0" y="100" width="400" height="50" fill="#87CEEB" opacity="0.5"/>
  <rect x="0" y="200" width="400" height="50" fill="#87CEEB" opacity="0.5"/>
  
  <!-- Yellow lined paper -->
  <rect x="50" y="80" width="300" height="180" fill="#FFFACD" stroke="#666" stroke-width="1"/>
  
  <!-- Lines on paper -->
  <line x1="50" y1="120" x2="350" y2="120" stroke="#CCC" stroke-width="1"/>
  <line x1="50" y1="140" x2="350" y2="140" stroke="#CCC" stroke-width="1"/>
  <line x1="50" y1="160" x2="350" y2="160" stroke="#CCC" stroke-width="1"/>
  <line x1="50" y1="180" x2="350" y2="180" stroke="#CCC" stroke-width="1"/>
  <line x1="50" y1="200" x2="350" y2="200" stroke="#CCC" stroke-width="1"/>
  
  <!-- Hand with red wristband -->
  <g id="hand">
    <ellipse cx="200" cy="100" rx="30" ry="20" fill="#FDBCB4" transform="rotate(-20 200 100)"/>
    <rect x="170" y="90" width="25" height="8" fill="#FF0000" transform="rotate(-20 200 100)"/>
    
    <!-- Pen in hand -->
    <rect x="215" y="95" width="60" height="5" fill="#000" transform="rotate(-20 200 100)"/>
    <circle cx="275" cy="97.5" r="2.5" fill="#000" transform="rotate(-20 200 100)"/>
    
    <animateTransform
      attributeName="transform"
      type="translate"
      values="0,0; 50,40; 100,40; 150,40; 150,40"
      dur="6s"
      repeatCount="indefinite"/>
  </g>
  
  <!-- Letter W -->
  <path d="M 120 140 L 125 160 L 130 145 L 135 160 L 140 140" 
        stroke="#000" stroke-width="2" fill="none" opacity="0">
    <animate attributeName="opacity" values="0;0;1;1;1;1" dur="6s" repeatCount="indefinite"/>
    <animate attributeName="stroke-dasharray" values="0 100;0 100;100 0;100 0;100 0;100 0" 
             dur="6s" repeatCount="indefinite"/>
  </path>
  
  <!-- Letter I -->
  <g opacity="0">
    <line x1="170" y1="140" x2="170" y2="160" stroke="#000" stroke-width="2"/>
    <line x1="165" y1="140" x2="175" y2="140" stroke="#000" stroke-width="2"/>
    <line x1="165" y1="160" x2="175" y2="160" stroke="#000" stroke-width="2"/>
    <animate attributeName="opacity" values="0;0;0;1;1;1" dur="6s" repeatCount="indefinite"/>
  </g>
  
  <!-- Letter N -->
  <path d="M 200 160 L 200 140 L 215 160 L 215 140" 
        stroke="#000" stroke-width="2" fill="none" opacity="0">
    <animate attributeName="opacity" values="0;0;0;0;1;1" dur="6s" repeatCount="indefinite"/>
    <animate attributeName="stroke-dasharray" values="0 100;0 100;0 100;0 100;100 0;100 0" 
             dur="6s" repeatCount="indefinite"/>
  </path>
  
  <!-- Final "WIN" text highlight -->
  <rect x="115" y="135" width="105" height="30" fill="yellow" opacity="0">
    <animate attributeName="opacity" values="0;0;0;0;0;0.3" dur="6s" repeatCount="indefinite"/>
  </rect>
</svg>