<svg width="800" height="600" xmlns="http://www.w3.org/2000/svg">
  <!-- Room background -->
  <rect width="800" height="600" fill="#f5f5f5"/>
  
  <!-- Door -->
  <rect x="50" y="100" width="120" height="250" fill="#8B6F47" stroke="#654321" stroke-width="3"/>
  <rect x="140" y="220" width="15" height="30" fill="#333"/>
  
  <!-- Bed -->
  <rect x="550" y="200" width="230" height="350" fill="#FFB6C1" stroke="#8B4513" stroke-width="3"/>
  <pattern id="floral" x="0" y="0" width="40" height="40" patternUnits="userSpaceOnUse">
    <circle cx="20" cy="20" r="8" fill="#9370DB"/>
    <circle cx="10" cy="10" r="5" fill="#FF69B4"/>
    <circle cx="30" cy="10" r="5" fill="#FF69B4"/>
    <circle cx="10" cy="30" r="5" fill="#FF69B4"/>
    <circle cx="30" cy="30" r="5" fill="#FF69B4"/>
  </pattern>
  <rect x="560" y="210" width="210" height="180" fill="url(#floral)"/>
  
  <!-- Red circular table -->
  <ellipse cx="400" cy="450" rx="150" ry="50" fill="#CD5C5C" stroke="#8B0000" stroke-width="3"/>
  
  <!-- Table items -->
  <ellipse cx="350" cy="440" rx="25" ry="15" fill="#FFF" stroke="#CCC" stroke-width="2"/>
  <rect x="380" y="430" width="15" height="3" fill="#C0C0C0"/>
  <rect x="420" y="435" width="20" height="15" fill="#FFF" stroke="#CCC" stroke-width="1"/>
  <rect x="460" y="430" width="25" height="20" fill="#DC143C"/>
  <rect x="490" y="430" width="25" height="20" fill="#DC143C"/>
  
  <!-- Blue bowl (appears later) -->
  <ellipse cx="400" cy="435" rx="30" ry="20" fill="#4169E1" stroke="#000080" stroke-width="2" opacity="0">
    <animate attributeName="opacity" values="0;0;1;1;1;1;1;1;1;1" dur="10s" repeatCount="indefinite"/>
  </ellipse>
  
  <!-- Person -->
  <g id="person">
    <!-- Body -->
    <rect x="350" y="250" width="100" height="120" fill="#8B4513">
      <pattern id="stripes" x="0" y="0" width="100" height="20" patternUnits="userSpaceOnUse">
        <rect x="0" y="0" width="100" height="10" fill="#8B4789"/>
        <rect x="0" y="10" width="100" height="10" fill="#FFF"/>
      </pattern>
      <rect x="350" y="250" width="100" height="120" fill="url(#stripes)"/>
    </rect>
    
    <!-- Skirt -->
    <path d="M 350 370 L 340 450 L 460 450 L 450 370 Z" fill="#D2B48C" stroke="#A0522D" stroke-width="2"/>
    
    <!-- Head -->
    <circle cx="400" cy="220" r="30" fill="#FDBCB4" stroke="#8B4513" stroke-width="2"/>
    
    <!-- Arms -->
    <g id="leftArm">
      <rect x="320" y="270" width="30" height="80" fill="#FDBCB4" stroke="#8B4513" stroke-width="2">
        <animateTransform attributeName="transform" type="rotate" 
          values="0 335 270; -20 335 270; -40 335 270; -20 335 270; 0 335 270; 0 335 270; 0 335 270; 0 335 270; 0 335 270; 0 335 270"
          dur="10s" repeatCount="indefinite"/>
      </rect>
    </g>
    
    <g id="rightArm">
      <rect x="450" y="270" width="30" height="80" fill="#FDBCB4" stroke="#8B4513" stroke-width="2">
        <animateTransform attributeName="transform" type="rotate" 
          values="0 465 270; 0 465 270; 0 465 270; 30 465 270; 45 465 270; 30 465 270; 45 465 270; 30 465 270; 0 465 270; 0 465 270"
          dur="10s" repeatCount="indefinite"/>
      </rect>
    </g>
    
    <!-- Fork/utensil in hand -->
    <g id="utensil" opacity="0">
      <rect x="470" y="340" width="3" height="40" fill="#C0C0C0">
        <animate attributeName="opacity" values="0;0;0;1;1;1;1;1;0;0" dur="10s" repeatCount="indefinite"/>
        <animateTransform attributeName="transform" type="rotate" 
          values="0 471 340; 0 471 340; 0 471 340; -30 471 340; -45 471 340; -30 471 340; -45 471 340; -30 471 340; 0 471 340; 0 471 340"
          dur="10s" repeatCount="indefinite"/>
      </rect>
      <rect x="468" y="340" width="9" height="2" fill="#C0C0C0">
        <animate attributeName="opacity" values="0;0;0;1;1;1;1;1;0;0" dur="10s" repeatCount="indefinite"/>
        <animateTransform attributeName="transform" type="rotate" 
          values="0 471 340; 0 471 340; 0 471 340; -30 471 340; -45 471 340; -30 471 340; -45 471 340; -30 471 340; 0 471 340; 0 471 340"
          dur="10s" repeatCount="indefinite"/>
      </rect>
    </g>
  </g>
  
  <!-- Stirring motion indicator -->
  <circle cx="400" cy="435" r="15" fill="none" stroke="#333" stroke-width="1" stroke-dasharray="2,3" opacity="0">
    <animate attributeName="opacity" values="0;0;0;0;0.5;0.5;0.5;0.5;0;0" dur="10s" repeatCount="indefinite"/>
    <animateTransform attributeName="transform" type="rotate" values="0 400 435; 0 400 435; 0 400 435; 0 400 435; 360 400 435; 720 400 435; 1080 400 435; 1440 400 435; 1440 400 435; 1440 400 435" dur="10s" repeatCount="indefinite"/>
  </circle>
</svg>