<svg width="400" height="300" viewBox="0 0 400 300" xmlns="http://www.w3.org/2000/svg">
  <!-- Background -->
  <rect width="400" height="300" fill="#87CEEB"/>
  <rect x="0" y="200" width="400" height="100" fill="#90EE90"/>
  <rect x="50" y="150" width="300" height="20" fill="#808080"/>
  
  <!-- Table -->
  <rect x="100" y="170" width="200" height="80" fill="#696969" stroke="#000" stroke-width="2"/>
  
  <!-- Potato -->
  <ellipse cx="150" cy="190" rx="20" ry="15" fill="#D2B48C"/>
  
  <!-- Onion -->
  <circle cx="250" cy="190" r="18" fill="#DC143C"/>
  
  <!-- Person body -->
  <rect x="175" y="100" width="50" height="70" fill="#000"/>
  <rect x="170" y="100" width="60" height="50" fill="#FFF" stroke="#000" stroke-width="1"/>
  <line x1="170" y1="110" x2="230" y2="110" stroke="#000" stroke-width="1"/>
  <line x1="170" y1="120" x2="230" y2="120" stroke="#000" stroke-width="1"/>
  <line x1="170" y1="130" x2="230" y2="130" stroke="#000" stroke-width="1"/>
  <line x1="170" y1="140" x2="230" y2="140" stroke="#000" stroke-width="1"/>
  
  <!-- Head -->
  <circle cx="200" cy="80" r="20" fill="#FDBCB4"/>
  
  <!-- Left hand -->
  <g id="leftHand">
    <circle cx="140" cy="120" r="15" fill="#FDBCB4" stroke="#000" stroke-width="1">
      <animate attributeName="r" values="15;8;8;15" dur="4s" repeatCount="indefinite"/>
    </circle>
    <!-- Cross on left palm -->
    <g opacity="1">
      <line x1="135" y1="120" x2="145" y2="120" stroke="#0000FF" stroke-width="3">
        <animate attributeName="opacity" values="1;1;0;0" dur="4s" repeatCount="indefinite"/>
      </line>
      <line x1="140" y1="115" x2="140" y2="125" stroke="#0000FF" stroke-width="3">
        <animate attributeName="opacity" values="1;1;0;0" dur="4s" repeatCount="indefinite"/>
      </line>
    </g>
    <animateTransform attributeName="transform" type="translate" 
      values="0,0; 0,-20; 60,-20; 0,0" 
      dur="4s" repeatCount="indefinite"/>
  </g>
  
  <!-- Right hand -->
  <g id="rightHand">
    <circle cx="260" cy="120" r="15" fill="#FDBCB4" stroke="#000" stroke-width="1">
      <animate attributeName="r" values="15;8;8;15" dur="4s" repeatCount="indefinite"/>
    </circle>
    <!-- Cross on right palm -->
    <g opacity="0">
      <line x1="255" y1="120" x2="265" y2="120" stroke="#0000FF" stroke-width="3">
        <animate attributeName="opacity" values="0;0;1;1" dur="4s" repeatCount="indefinite"/>
      </line>
      <line x1="260" y1="115" x2="260" y2="125" stroke="#0000FF" stroke-width="3">
        <animate attributeName="opacity" values="0;0;1;1" dur="4s" repeatCount="indefinite"/>
      </line>
    </g>
    <animateTransform attributeName="transform" type="translate" 
      values="0,0; 0,-20; -60,-20; 0,0" 
      dur="4s" repeatCount="indefinite"/>
  </g>
</svg>