<svg width="800" height="600" xmlns="http://www.w3.org/2000/svg">
  <!-- Background -->
  <rect width="800" height="600" fill="#87CEEB"/>
  
  <!-- Foliage -->
  <ellipse cx="100" cy="150" rx="80" ry="60" fill="#228B22" opacity="0.7"/>
  <ellipse cx="700" cy="180" rx="90" ry="70" fill="#2E8B57" opacity="0.6"/>
  
  <!-- Table -->
  <rect x="200" y="400" width="400" height="150" fill="#8B4513"/>
  <rect x="180" y="390" width="440" height="20" fill="#654321"/>
  
  <!-- Potato -->
  <ellipse cx="280" cy="380" rx="40" ry="30" fill="#D2691E"/>
  
  <!-- Red onion -->
  <ellipse cx="520" cy="380" rx="35" ry="35" fill="#8B0000"/>
  <ellipse cx="520" cy="380" rx="30" ry="30" fill="#CD5C5C" opacity="0.7"/>
  
  <!-- Person body -->
  <rect x="350" y="250" width="100" height="150" fill="#000000"/>
  <rect x="320" y="250" width="160" height="120" fill="#FFFFFF"/>
  <line x1="320" y1="270" x2="480" y2="270" stroke="#000" stroke-width="2"/>
  <line x1="320" y1="290" x2="480" y2="290" stroke="#000" stroke-width="2"/>
  <line x1="320" y1="310" x2="480" y2="310" stroke="#000" stroke-width="2"/>
  <line x1="320" y1="330" x2="480" y2="330" stroke="#000" stroke-width="2"/>
  <line x1="320" y1="350" x2="480" y2="350" stroke="#000" stroke-width="2"/>
  
  <!-- Arms -->
  <rect x="280" y="280" width="40" height="120" fill="#FDBCB4"/>
  <rect x="480" y="280" width="40" height="120" fill="#FDBCB4"/>
  
  <!-- Left hand group -->
  <g id="leftHand">
    <ellipse cx="300" cy="420" rx="30" ry="40" fill="#FDBCB4"/>
    <rect x="280" y="380" width="40" height="50" fill="#FDBCB4"/>
    <!-- Cross on left palm -->
    <line x1="290" y1="420" x2="310" y2="420" stroke="#000" stroke-width="3"/>
    <line x1="300" y1="410" x2="300" y2="430" stroke="#000" stroke-width="3"/>
    
    <!-- Animate left hand -->
    <animateTransform
      attributeName="transform"
      type="rotate"
      values="0 300 400; -90 300 400; 0 300 400; 90 300 400; 0 300 400"
      dur="8s"
      repeatCount="indefinite"/>
  </g>
  
  <!-- Right hand group -->
  <g id="rightHand">
    <ellipse cx="500" cy="420" rx="30" ry="40" fill="#FDBCB4"/>
    <rect x="480" y="380" width="40" height="50" fill="#FDBCB4"/>
    
    <!-- Animate right hand -->
    <animateTransform
      attributeName="transform"
      type="rotate"
      values="0 500 400; 90 500 400; 0 500 400; -90 500 400; 0 500 400"
      dur="8s"
      repeatCount="indefinite"/>
  </g>
  
  <!-- Fist animations for both hands -->
  <ellipse cx="300" cy="420" rx="25" ry="25" fill="#FDBCB4" opacity="0">
    <animate
      attributeName="opacity"
      values="0;0;1;1;0;0"
      dur="8s"
      repeatCount="indefinite"/>
  </ellipse>
  
  <ellipse cx="500" cy="420" rx="25" ry="25" fill="#FDBCB4" opacity="0">
    <animate
      attributeName="opacity"
      values="0;0;1;1;0;0"
      dur="8s"
      repeatCount="indefinite"/>
  </ellipse>
  
  <!-- Hand movement paths -->
  <ellipse cx="300" cy="420" rx="5" ry="5" fill="#FF0000" opacity="0">
    <animateMotion
      path="M0,0 L50,0 L50,50 L-50,50 L-50,-50 L0,0"
      dur="8s"
      repeatCount="indefinite"/>
    <animate
      attributeName="opacity"
      values="0;0;0.5;0.5;0;0"
      dur="8s"
      repeatCount="indefinite"/>
  </ellipse>
  
  <ellipse cx="500" cy="420" rx="5" ry="5" fill="#0000FF" opacity="0">
    <animateMotion
      path="M0,0 L-50,0 L-50,50 L50,50 L50,-50 L0,0"
      dur="8s"
      repeatCount="indefinite"/>
    <animate
      attributeName="opacity"
      values="0;0;0.5;0.5;0;0"
      dur="8s"
      repeatCount="indefinite"/>
  </ellipse>
</svg>