<svg width="800" height="600" xmlns="http://www.w3.org/2000/svg">
  <!-- Background -->
  <rect width="800" height="600" fill="#f8f8f8"/>
  
  <!-- Blue pen (static) -->
  <g id="pen">
    <rect x="50" y="300" width="120" height="15" fill="#1e40af" rx="7"/>
    <rect x="160" y="302" width="20" height="11" fill="#cbd5e1"/>
    <text x="70" y="310" font-size="10" fill="white" font-family="Arial">Pilot</text>
  </g>
  
  <!-- Book (static) -->
  <g id="book">
    <rect x="500" y="250" width="150" height="200" fill="#d4a574" stroke="#8b6914" stroke-width="2"/>
    <rect x="510" y="260" width="130" height="180" fill="#f5deb3"/>
    <text x="520" y="300" font-size="14" fill="#333" font-family="Arial">Birthday Party</text>
    <text x="530" y="320" font-size="11" fill="#666" font-family="Arial">Harold Pinter</text>
  </g>
  
  <!-- Yellow cup (static) -->
  <g id="cup">
    <ellipse cx="650" cy="150" rx="40" ry="10" fill="#fbbf24"/>
    <rect x="610" y="150" width="80" height="60" fill="#fbbf24"/>
    <ellipse cx="650" cy="210" rx="40" ry="10" fill="#f59e0b"/>
    <rect x="645" y="130" width="10" height="50" fill="white" stroke="#ccc"/>
  </g>
  
  <!-- Green ball (animated) -->
  <circle id="ball" cx="350" cy="350" r="30" fill="#84cc16">
    <animate attributeName="cx" 
      values="350;350;350;350;350;350;350;350;350;350;350;250;250;350;350;350;350"
      dur="8.5s" 
      repeatCount="indefinite"/>
    <animate attributeName="cy" 
      values="350;350;350;350;350;350;350;350;350;350;280;280;350;350;280;280;350"
      dur="8.5s" 
      repeatCount="indefinite"/>
  </circle>
  
  <!-- Hand (animated) -->
  <g id="hand" opacity="0">
    <path d="M 100 400 Q 120 380, 140 380 L 140 340 Q 145 335, 150 340 L 150 330 Q 155 325, 160 330 L 160 325 Q 165 320, 170 325 L 170 330 Q 175 325, 180 330 L 180 360 Q 180 390, 160 400 L 120 420 Q 100 420, 100 400" 
          fill="#fdbcb4" stroke="#e8a598" stroke-width="2"/>
    
    <animate attributeName="opacity" 
      values="0;0;0;1;0;0;0;0;0;0;1;1;1;1;1;1;0"
      dur="8.5s" 
      repeatCount="indefinite"/>
    
    <animateTransform attributeName="transform" type="translate"
      values="0,0;0,0;0,0;0,0;0,0;0,0;0,0;0,0;0,0;0,0;150,-70;150,-70;250,0;200,-100;200,-100;200,-100;0,0"
      dur="8.5s"
      repeatCount="indefinite"/>
  </g>
</svg>