<svg width="400" height="600" viewBox="0 0 400 600" xmlns="http://www.w3.org/2000/svg">
  <!-- Background -->
  <rect width="400" height="600" fill="#f5e6d3"/>
  
  <!-- Religious icon on wall -->
  <rect x="50" y="30" width="40" height="50" fill="#8b4513" stroke="#654321" stroke-width="2"/>
  <rect x="55" y="35" width="30" height="40" fill="#ffd700"/>
  
  <!-- Bed -->
  <rect x="250" y="150" width="150" height="200" fill="#8b6534"/>
  <rect x="260" y="160" width="130" height="180" fill="#a0522d"/>
  
  <!-- Stuffed toys -->
  <circle cx="280" cy="180" r="15" fill="#ffeb3b"/>
  <circle cx="275" cy="175" r="2" fill="#000"/>
  <circle cx="285" cy="175" r="2" fill="#000"/>
  
  <circle cx="320" cy="185" r="18" fill="#808080"/>
  <path d="M305 185 L315 175 L325 175 L335 185" fill="#ff69b4"/>
  
  <!-- Person's shirt -->
  <path d="M120 200 L120 500 L280 500 L280 200 L230 180 L170 180 Z" fill="#ffc0cb" stroke="#dda0dd" stroke-width="2"/>
  
  <!-- Checkered pattern on shirt -->
  <pattern id="checkered" x="0" y="0" width="20" height="20" patternUnits="userSpaceOnUse">
    <rect x="0" y="0" width="10" height="10" fill="#ffc0cb"/>
    <rect x="10" y="10" width="10" height="10" fill="#ffc0cb"/>
    <rect x="10" y="0" width="10" height="10" fill="#dda0dd" opacity="0.3"/>
    <rect x="0" y="10" width="10" height="10" fill="#dda0dd" opacity="0.3"/>
  </pattern>
  <path d="M120 200 L120 500 L280 500 L280 200 L230 180 L170 180 Z" fill="url(#checkered)"/>
  
  <!-- Collar -->
  <path d="M170 180 L170 220 L200 240 L230 220 L230 180" fill="#ffc0cb" stroke="#dda0dd" stroke-width="2"/>
  
  <!-- Button placket -->
  <line x1="200" y1="220" x2="200" y2="480" stroke="#dda0dd" stroke-width="3"/>
  
  <!-- Buttons -->
  <circle cx="200" cy="250" r="5" fill="#fff" stroke="#dda0dd"/>
  <circle cx="200" cy="300" r="5" fill="#fff" stroke="#dda0dd"/>
  <circle cx="200" cy="350" r="5" fill="#fff" stroke="#dda0dd"/>
  <circle cx="200" cy="400" r="5" fill="#fff" stroke="#dda0dd"/>
  <circle cx="200" cy="450" r="5" fill="#fff" stroke="#dda0dd"/>
  
  <!-- Arms -->
  <ellipse cx="120" cy="300" rx="25" ry="80" fill="#f4c2a1"/>
  <ellipse cx="280" cy="300" rx="25" ry="80" fill="#f4c2a1"/>
  
  <!-- Hands -->
  <g id="leftHand">
    <ellipse cx="160" cy="250" rx="20" ry="25" fill="#f4c2a1">
      <animate attributeName="cy" values="200;250;300;350;400;450;200" dur="6s" repeatCount="indefinite"/>
    </ellipse>
    <ellipse cx="155" cy="245" rx="3" ry="8" fill="#f4c2a1">
      <animate attributeName="cy" values="195;245;295;345;395;445;195" dur="6s" repeatCount="indefinite"/>
    </ellipse>
    <ellipse cx="165" cy="245" rx="3" ry="8" fill="#f4c2a1">
      <animate attributeName="cy" values="195;245;295;345;395;445;195" dur="6s" repeatCount="indefinite"/>
    </ellipse>
  </g>
  
  <g id="rightHand">
    <ellipse cx="240" cy="250" rx="20" ry="25" fill="#f4c2a1">
      <animate attributeName="cy" values="200;250;300;350;400;450;200" dur="6s" repeatCount="indefinite"/>
    </ellipse>
    <ellipse cx="235" cy="245" rx="3" ry="8" fill="#f4c2a1">
      <animate attributeName="cy" values="195;245;295;345;395;445;195" dur="6s" repeatCount="indefinite"/>
    </ellipse>
    <ellipse cx="245" cy="245" rx="3" ry="8" fill="#f4c2a1">
      <animate attributeName="cy" values="195;245;295;345;395;445;195" dur="6s" repeatCount="indefinite"/>
    </ellipse>
  </g>
  
  <!-- Buttoning motion indicators -->
  <circle cx="200" cy="250" r="8" fill="none" stroke="#ff69b4" stroke-width="2" opacity="0">
    <animate attributeName="opacity" values="0;0;1;1;0;0;0;0;0;0;0" dur="6s" repeatCount="indefinite"/>
  </circle>
  <circle cx="200" cy="300" r="8" fill="none" stroke="#ff69b4" stroke-width="2" opacity="0">
    <animate attributeName="opacity" values="0;0;0;0;1;1;0;0;0;0;0" dur="6s" repeatCount="indefinite"/>
  </circle>
  <circle cx="200" cy="350" r="8" fill="none" stroke="#ff69b4" stroke-width="2" opacity="0">
    <animate attributeName="opacity" values="0;0;0;0;0;0;1;1;0;0;0" dur="6s" repeatCount="indefinite"/>
  </circle>
  <circle cx="200" cy="400" r="8" fill="none" stroke="#ff69b4" stroke-width="2" opacity="0">
    <animate attributeName="opacity" values="0;0;0;0;0;0;0;0;1;1;0" dur="6s" repeatCount="indefinite"/>
  </circle>
  <circle cx="200" cy="450" r="8" fill="none" stroke="#ff69b4" stroke-width="2" opacity="0">
    <animate attributeName="opacity" values="0;0;0;0;0;0;0;0;0;0;1" dur="6s" repeatCount="indefinite"/>
  </circle>
</svg>