<svg width="800" height="600" xmlns="http://www.w3.org/2000/svg">
  <!-- Background table -->
  <rect x="0" y="400" width="800" height="200" fill="#8B7355"/>
  
  <!-- Glass jar -->
  <g id="jar">
    <rect x="600" y="300" width="80" height="120" fill="#F5F5DC" opacity="0.7" rx="5"/>
    <rect x="600" y="300" width="80" height="30" fill="#8B4513"/>
    <text x="640" y="365" text-anchor="middle" font-size="12" fill="#333">GÜRSOY</text>
    <circle cx="620" cy="380" r="8" fill="#7B5F3A"/>
    <circle cx="640" cy="390" r="8" fill="#7B5F3A"/>
    <circle cx="660" cy="385" r="8" fill="#7B5F3A"/>
  </g>
  
  <!-- Person's torso -->
  <g id="person">
    <rect x="200" y="350" width="400" height="250" fill="#A9A9A9"/>
    <line x1="200" y1="370" x2="600" y2="370" stroke="#696969" stroke-width="2"/>
    <line x1="200" y1="390" x2="600" y2="390" stroke="#696969" stroke-width="2"/>
    <line x1="200" y1="410" x2="600" y2="410" stroke="#696969" stroke-width="2"/>
    <line x1="200" y1="430" x2="600" y2="430" stroke="#696969" stroke-width="2"/>
  </g>
  
  <!-- Left hand -->
  <g id="leftHand">
    <ellipse cx="250" cy="350" rx="40" ry="25" fill="#FDBCB4">
      <animate attributeName="cy" values="350;300;280;280;320" dur="4s" repeatCount="indefinite"/>
      <animate attributeName="cx" values="250;300;320;340;360" dur="4s" repeatCount="indefinite"/>
    </ellipse>
  </g>
  
  <!-- Right hand -->
  <g id="rightHand">
    <ellipse cx="550" cy="350" rx="40" ry="25" fill="#FDBCB4">
      <animate attributeName="cy" values="350;300;280;280;320" dur="4s" repeatCount="indefinite"/>
      <animate attributeName="cx" values="550;500;480;460;440" dur="4s" repeatCount="indefinite"/>
    </ellipse>
  </g>
  
  <!-- Green paper transforming into airplane -->
  <g id="paper">
    <!-- Initial square paper -->
    <rect x="350" y="250" width="100" height="100" fill="#32CD32" opacity="1">
      <animate attributeName="opacity" values="1;1;0;0;0" dur="4s" repeatCount="indefinite"/>
    </rect>
    
    <!-- Folding stage 1 - diagonal fold -->
    <polygon points="350,250 450,250 400,300 350,350" fill="#32CD32" opacity="0">
      <animate attributeName="opacity" values="0;0;1;0;0" dur="4s" repeatCount="indefinite"/>
    </polygon>
    
    <!-- Folding stage 2 - wings forming -->
    <g opacity="0">
      <animate attributeName="opacity" values="0;0;0;1;0" dur="4s" repeatCount="indefinite"/>
      <polygon points="400,250 350,300 400,280 450,300" fill="#32CD32"/>
      <polygon points="400,280 380,320 400,310 420,320" fill="#228B22"/>
    </g>
    
    <!-- Final airplane -->
    <g opacity="0" transform="translate(400,300)">
      <animateTransform attributeName="transform" 
        values="translate(400,300) rotate(0);translate(400,300) rotate(0);translate(400,300) rotate(0);translate(400,300) rotate(0);translate(400,280) rotate(-10)"
        dur="4s" repeatCount="indefinite"/>
      <animate attributeName="opacity" values="0;0;0;0;1" dur="4s" repeatCount="indefinite"/>
      <!-- Airplane body -->
      <polygon points="0,-40 -30,0 0,-10 30,0" fill="#32CD32"/>
      <!-- Airplane wings -->
      <polygon points="-30,0 -50,10 -30,5" fill="#228B22"/>
      <polygon points="30,0 50,10 30,5" fill="#228B22"/>
      <!-- Airplane tail -->
      <polygon points="0,-10 -10,15 0,10 10,15" fill="#32CD32"/>
    </g>
  </g>
</svg>