<svg width="800" height="600" viewBox="0 0 800 600" xmlns="http://www.w3.org/2000/svg">
  <!-- Background with ornate pattern -->
  <rect width="800" height="600" fill="#f5f5f5"/>
  <path d="M100 400 Q150 380 200 400 T300 400 Q350 380 400 400 T500 400 Q550 380 600 400 T700 400" stroke="#ddd" stroke-width="2" fill="none" opacity="0.5"/>
  
  <!-- Background bowls -->
  <ellipse cx="150" cy="100" rx="60" ry="30" fill="#e0e0e0"/>
  <path d="M90 100 Q150 120 210 100" stroke="#ccc" fill="none"/>
  <ellipse cx="650" cy="100" rx="60" ry="30" fill="#d4a574"/>
  <circle cx="630" cy="95" r="8" fill="#8b6914"/>
  <circle cx="650" cy="98" r="8" fill="#8b6914"/>
  <circle cx="670" cy="95" r="8" fill="#8b6914"/>
  
  <!-- Colored shadows -->
  <ellipse cx="250" cy="450" rx="40" ry="15" fill="#4169e1" opacity="0.3"/>
  <ellipse cx="400" cy="450" rx="40" ry="15" fill="#20b2aa" opacity="0.3"/>
  <ellipse cx="550" cy="450" rx="40" ry="15" fill="#32cd32" opacity="0.3"/>
  
  <!-- Blue glass -->
  <g id="blueGlass">
    <ellipse cx="250" cy="400" rx="35" ry="60" fill="#4169e1" opacity="0.7"/>
    <ellipse cx="250" cy="340" rx="35" ry="20" fill="#4169e1" opacity="0.5"/>
    <ellipse cx="250" cy="340" rx="30" ry="15" fill="none" stroke="#fff" stroke-width="2" opacity="0.8"/>
    <animateTransform
      attributeName="transform"
      type="translate"
      values="0,0; 0,0; 0,0; 0,0; 0,-100; 0,-100; 0,0; 0,0"
      dur="8s"
      repeatCount="indefinite"/>
  </g>
  
  <!-- Teal glass -->
  <g id="tealGlass">
    <ellipse cx="400" cy="400" rx="35" ry="60" fill="#20b2aa" opacity="0.7"/>
    <ellipse cx="400" cy="340" rx="35" ry="20" fill="#20b2aa" opacity="0.5"/>
    <ellipse cx="400" cy="340" rx="30" ry="15" fill="none" stroke="#fff" stroke-width="2" opacity="0.8"/>
    <animateTransform
      attributeName="transform"
      type="translate"
      values="0,0; 0,0; 0,0; 0,0; 0,0; 0,-100; 0,-100; 0,0"
      dur="8s"
      repeatCount="indefinite"/>
  </g>
  
  <!-- Small black object under teal glass -->
  <circle cx="400" cy="455" r="5" fill="#333">
    <animate
      attributeName="opacity"
      values="0; 0; 0; 0; 0; 1; 1; 0"
      dur="8s"
      repeatCount="indefinite"/>
  </circle>
  
  <!-- Green glass -->
  <g id="greenGlass">
    <ellipse cx="550" cy="400" rx="35" ry="60" fill="#32cd32" opacity="0.7"/>
    <ellipse cx="550" cy="340" rx="35" ry="20" fill="#32cd32" opacity="0.5"/>
    <ellipse cx="550" cy="340" rx="30" ry="15" fill="none" stroke="#fff" stroke-width="2" opacity="0.8"/>
    <animateTransform
      attributeName="transform"
      type="translate"
      values="0,0; 0,-100; 0,-100; 0,0; 0,0; 0,0; 0,0; 0,0"
      dur="8s"
      repeatCount="indefinite"/>
  </g>
  
  <!-- Hand -->
  <g id="hand">
    <path d="M0 0 L-20 30 L-15 60 L0 65 L15 60 L20 30 Z" fill="#f4c2a1"/>
    <rect x="-10" y="60" width="20" height="10" fill="#333" rx="5"/>
    <circle cx="5" cy="40" r="3" fill="#gold"/>
    <circle cx="-5" cy="45" r="2" fill="#silver"/>
    <animateTransform
      attributeName="transform"
      type="translate"
      values="550,250; 550,300; 550,250; 250,250; 250,300; 400,250; 400,300; 400,250"
      dur="8s"
      repeatCount="indefinite"/>
  </g>
</svg>