<svg width="800" height="600" xmlns="http://www.w3.org/2000/svg">
  <!-- Background and table -->
  <rect width="800" height="600" fill="#f5f5f5"/>
  <rect x="0" y="300" width="800" height="300" fill="#8B6F47"/>
  
  <!-- Wall outlet -->
  <rect x="650" y="150" width="60" height="80" fill="white" stroke="#333" stroke-width="2"/>
  <circle cx="670" cy="170" r="8" fill="#333"/>
  <circle cx="690" cy="170" r="8" fill="#333"/>
  <rect x="665" y="195" width="30" height="20" fill="#333" rx="2"/>
  
  <!-- Red metal shelf with tins -->
  <rect x="50" y="250" width="120" height="150" fill="#B22222"/>
  <rect x="60" y="260" width="40" height="50" fill="#708090"/>
  <rect x="110" y="260" width="40" height="50" fill="#708090"/>
  <rect x="60" y="320" width="40" height="50" fill="#708090"/>
  
  <!-- Gold bottle vase with flowers -->
  <ellipse cx="350" cy="400" rx="30" ry="60" fill="#FFD700"/>
  <rect x="340" y="340" width="20" height="30" fill="#FFD700"/>
  <circle cx="340" cy="320" r="15" fill="white"/>
  <circle cx="360" cy="315" r="15" fill="white"/>
  <circle cx="350" cy="310" r="15" fill="white"/>
  
  <!-- Blue pens -->
  <rect x="450" y="380" width="80" height="8" fill="#4169E1" transform="rotate(15 490 384)"/>
  <rect x="460" y="390" width="80" height="8" fill="#4169E1" transform="rotate(20 500 394)"/>
  
  <!-- Light bulb -->
  <g id="bulb">
    <circle cx="550" cy="350" r="40" fill="#FFFFE0" opacity="0.3">
      <animate attributeName="opacity" values="0.3;1;1" dur="4s" begin="3s" fill="freeze"/>
    </circle>
    <circle cx="550" cy="350" r="25" fill="#FFF8DC" stroke="#666" stroke-width="2">
      <animate attributeName="fill" values="#FFF8DC;#FFFACD;#FFFACD" dur="4s" begin="3s" fill="freeze"/>
    </circle>
    <rect x="545" y="375" width="10" height="15" fill="#666"/>
    <path d="M540 390 L560 390" stroke="#666" stroke-width="2"/>
  </g>
  
  <!-- Light glow effect -->
  <circle cx="550" cy="350" r="80" fill="yellow" opacity="0">
    <animate attributeName="opacity" values="0;0;0.4" dur="4s" begin="0s" fill="freeze"/>
  </circle>
  
  <!-- Electrical cord -->
  <path id="cord" d="M550 390 Q600 420 650 380 Q680 350 680 230" 
        stroke="#333" stroke-width="3" fill="none"/>
  
  <!-- Plug -->
  <g id="plug">
    <rect x="670" y="220" width="20" height="30" fill="#333" rx="3">
      <animateTransform attributeName="transform" type="translate" 
                        values="0,0;0,0;0,-50;0,-50" 
                        dur="4s" begin="0s" fill="freeze"/>
    </rect>
    <rect x="675" y="200" width="3" height="20" fill="#666">
      <animateTransform attributeName="transform" type="translate" 
                        values="0,0;0,0;0,-50;0,-50" 
                        dur="4s" begin="0s" fill="freeze"/>
    </rect>
    <rect x="682" y="200" width="3" height="20" fill="#666">
      <animateTransform attributeName="transform" type="translate" 
                        values="0,0;0,0;0,-50;0,-50" 
                        dur="4s" begin="0s" fill="freeze"/>
    </rect>
  </g>
  
  <!-- Hand -->
  <g id="hand">
    <ellipse cx="750" cy="230" rx="30" ry="40" fill="#FDBCB4">
      <animateTransform attributeName="transform" type="translate" 
                        values="0,0;-70,0;-70,-50;0,0" 
                        dur="4s" begin="0s" fill="freeze"/>
    </ellipse>
    <rect x="735" y="200" width="8" height="25" fill="#FDBCB4">
      <animateTransform attributeName="transform" type="translate" 
                        values="0,0;-70,0;-70,-50;0,0" 
                        dur="4s" begin="0s" fill="freeze"/>
    </rect>
    <rect x="745" y="200" width="8" height="25" fill="#FDBCB4">
      <animateTransform attributeName="transform" type="translate" 
                        values="0,0;-70,0;-70,-50;0,0" 
                        dur="4s" begin="0s" fill="freeze"/>
    </rect>
    <rect x="755" y="200" width="8" height="25" fill="#FDBCB4">
      <animateTransform attributeName="transform" type="translate" 
                        values="0,0;-70,0;-70,-50;0,0" 
                        dur="4s" begin="0s" fill="freeze"/>
    </rect>
  </g>
</svg>