<svg width="800" height="600" viewBox="0 0 800 600" xmlns="http://www.w3.org/2000/svg">
  <!-- Table surface -->
  <rect x="0" y="400" width="800" height="200" fill="#8B6F47"/>
  
  <!-- Wall -->
  <rect x="0" y="0" width="800" height="400" fill="#F5F5DC"/>
  
  <!-- Electrical outlet -->
  <rect x="700" y="300" width="60" height="80" fill="white" stroke="#ddd" stroke-width="2"/>
  <circle cx="720" cy="325" r="8" fill="#333"/>
  <circle cx="740" cy="325" r="8" fill="#333"/>
  <rect x="715" y="345" width="30" height="3" fill="#333"/>
  <circle cx="720" cy="365" r="8" fill="#333"/>
  <circle cx="740" cy="365" r="8" fill="#333"/>
  
  <!-- Gold bottle with orchid -->
  <g id="bottle">
    <ellipse cx="200" cy="400" rx="40" ry="8" fill="#B8860B" opacity="0.3"/>
    <rect x="170" y="300" width="60" height="100" fill="#B8860B"/>
    <rect x="175" y="295" width="50" height="10" fill="#8B7355"/>
    <path d="M180 290 L220 290 L215 270 L185 270 Z" fill="#CD853F"/>
    <path d="M185 270 L215 270 L210 260 L190 260 Z" fill="#333" opacity="0.5"/>
    <ellipse cx="200" cy="240" rx="15" ry="25" fill="#9932CC" opacity="0.8"/>
    <ellipse cx="185" cy="235" rx="12" ry="20" fill="#9932CC" opacity="0.8"/>
    <ellipse cx="215" cy="235" rx="12" ry="20" fill="#9932CC" opacity="0.8"/>
  </g>
  
  <!-- Red tiered rack -->
  <g id="rack">
    <rect x="350" y="350" width="80" height="50" fill="#DC143C"/>
    <rect x="340" y="300" width="100" height="50" fill="#DC143C"/>
    <rect x="360" y="320" width="20" height="30" fill="#FFD700" stroke="#333"/>
    <circle cx="370" cy="335" r="5" fill="#333"/>
    <rect x="400" y="320" width="20" height="30" fill="#FFD700" stroke="#333"/>
    <circle cx="410" cy="335" r="5" fill="#333"/>
    <rect x="365" y="370" width="20" height="30" fill="#FFD700" stroke="#333"/>
    <circle cx="375" cy="385" r="5" fill="#333"/>
    <rect x="395" y="370" width="20" height="30" fill="#FFD700" stroke="#333"/>
    <circle cx="405" cy="385" r="5" fill="#333"/>
  </g>
  
  <!-- Lightbulb -->
  <g id="lightbulb">
    <path d="M500 350 Q480 320 500 300" stroke="#333" stroke-width="3" fill="none">
      <animate attributeName="d" values="M500 350 Q480 320 500 300;M500 350 Q520 320 500 300;M500 350 Q480 320 500 300" dur="8s" repeatCount="indefinite"/>
    </path>
    <circle cx="500" cy="300" r="25" fill="none" stroke="#666" stroke-width="2"/>
    <path d="M485 300 L515 300 M490 290 L510 310 M490 310 L510 290" stroke="#FFA500" stroke-width="1" opacity="0.8"/>
    <animateTransform attributeName="transform" type="translate" values="0,0; 20,0; 0,0; -20,0; 0,0" dur="6s" repeatCount="indefinite"/>
  </g>
  
  <!-- Blue pens -->
  <rect x="100" y="380" width="60" height="5" fill="#4169E1" transform="rotate(-15 130 382.5)">
    <animateTransform attributeName="transform" type="rotate" values="-15 130 382.5; -15 130 382.5; -45 130 382.5; -15 130 382.5" dur="8s" repeatCount="indefinite"/>
  </rect>
  <rect x="250" y="390" width="60" height="5" fill="#4169E1" transform="rotate(25 280 392.5)"/>
  <rect x="450" y="385" width="60" height="5" fill="#4169E1" transform="rotate(-30 480 387.5)">
    <animateTransform attributeName="transform" type="rotate" values="-30 480 387.5; -30 480 387.5; 10 480 387.5; -30 480 387.5" dur="7s" repeatCount="indefinite"/>
  </rect>
  
  <!-- Pouring liquid -->
  <g opacity="0">
    <rect x="380" y="100" width="40" height="60" fill="#87CEEB" opacity="0.6"/>
    <path d="M380 160 L400 160 L390 200" stroke="#87CEEB" stroke-width="8" fill="none" opacity="0.8"/>
    <animate attributeName="opacity" values="0;0;1;1;0;0" dur="8s" repeatCount="indefinite"/>
  </g>
  
  <!-- Hand -->
  <g id="hand" opacity="0">
    <ellipse cx="400" cy="120" rx="30" ry="40" fill="#FDBCB4"/>
    <rect x="385" y="80" width="30" height="50" fill="#FDBCB4"/>
    <animate attributeName="opacity" values="0;0;1;1;0;0;0;1;1;0" dur="8s" repeatCount="indefinite"/>
    <animateTransform attributeName="transform" type="translate" values="0,0; 0,0; 0,0; 0,0; 0,0; -300,200; -300,200; -300,200; 0,0; 0,0" dur="8s" repeatCount="indefinite"/>
  </g>
  
  <!-- Vapor/fog effect -->
  <g id="vapor">
    <ellipse cx="400" cy="400" rx="100" ry="30" fill="white" opacity="0">
      <animate attributeName="opacity" values="0;0;0;0.6;0.4;0;0;0;0.5;0" dur="8s" repeatCount="indefinite"/>
      <animate attributeName="rx" values="100;100;100;200;300;350;100;100;250;100" dur="8s" repeatCount="indefinite"/>
      <animate attributeName="cy" values="400;400;400;390;380;370;400;400;385;400" dur="8s" repeatCount="indefinite"/>
    </ellipse>
    <ellipse cx="300" cy="395" rx="80" ry="25" fill="white" opacity="0">
      <animate attributeName="opacity" values="0;0;0;0;0.5;0.3;0;0;0.4;0" dur="8s" repeatCount="indefinite"/>
      <animate attributeName="rx" values="80;80;80;80;150;200;80;80;180;80" dur="8s" repeatCount="indefinite"/>
    </ellipse>
    <ellipse cx="500" cy="405" rx="90" ry="20" fill="white" opacity="0">
      <animate attributeName="opacity" values="0;0;0;0;0;0.4;0.2;0;0;0.3;0" dur="8s" repeatCount="indefinite"/>
      <animate attributeName="rx" values="90;90;90;90;90;180;240;90;90;200;90" dur="8s" repeatCount="indefinite"/>
    </ellipse>
  </g>
</svg>