<svg viewBox="0 0 800 600" xmlns="http://www.w3.org/2000/svg">
  <!-- Background -->
  <rect width="800" height="600" fill="#e5e5e5"/>
  
  <!-- Window -->
  <rect x="650" y="50" width="120" height="400" fill="#f0f0f0" stroke="#ccc" stroke-width="2"/>
  <line x1="650" y1="250" x2="770" y2="250" stroke="#ccc" stroke-width="2"/>
  
  <!-- Red shelf/container on left -->
  <g>
    <rect x="50" y="200" width="80" height="60" fill="#d32f2f" rx="5"/>
    <rect x="50" y="280" width="80" height="60" fill="#d32f2f" rx="5"/>
    <rect x="50" y="360" width="80" height="60" fill="#d32f2f" rx="5"/>
    <rect x="45" y="180" width="90" height="15" fill="#8b0000"/>
    <rect x="45" y="260" width="90" height="15" fill="#8b0000"/>
    <rect x="45" y="340" width="90" height="15" fill="#8b0000"/>
    <rect x="60" y="160" width="60" height="40" fill="#d32f2f"/>
    <pattern id="cloth" x="0" y="0" width="20" height="20" patternUnits="userSpaceOnUse">
      <rect width="10" height="10" fill="#fff"/>
      <rect x="10" y="10" width="10" height="10" fill="#fff"/>
      <rect x="0" y="10" width="10" height="10" fill="#d32f2f"/>
      <rect x="10" y="0" width="10" height="10" fill="#d32f2f"/>
    </pattern>
    <rect x="55" y="155" width="70" height="30" fill="url(#cloth)" rx="3"/>
  </g>
  
  <!-- Table surface -->
  <rect x="0" y="450" width="800" height="150" fill="#8b6f47"/>
  
  <!-- Gold bottle -->
  <g>
    <ellipse cx="300" cy="450" rx="40" ry="8" fill="#666"/>
    <rect x="260" y="420" width="80" height="30" fill="#999" rx="5"/>
    <rect x="270" y="320" width="60" height="100" fill="#d4af37"/>
    <path d="M 270 320 Q 270 280 300 280 Q 330 280 330 320" fill="#d4af37"/>
    <rect x="290" y="260" width="20" height="20" fill="#d4af37"/>
  </g>
  
  <!-- Flower in bottle -->
  <g>
    <line x1="300" y1="280" x2="300" y2="220" stroke="#228b22" stroke-width="3"/>
    <circle cx="300" cy="210" r="8" fill="#fff"/>
    <circle cx="290" cy="215" r="6" fill="#fff"/>
    <circle cx="310" cy="215" r="6" fill="#fff"/>
    <circle cx="300" cy="210" r="3" fill="#ffeb3b"/>
  </g>
  
  <!-- Wires attached to bottle -->
  <circle cx="280" cy="340" r="8" fill="#fff"/>
  <circle cx="320" cy="340" r="8" fill="#fff"/>
  <line x1="280" y1="340" x2="280" y2="360" stroke="#333" stroke-width="2"/>
  <line x1="320" y1="340" x2="320" y2="360" stroke="#333" stroke-width="2"/>
  
  <!-- Copper wire -->
  <path d="M 280 360 Q 250 380 220 400 Q 200 420 200 440 Q 200 460 220 460 L 420 460 Q 440 460 440 440 Q 440 420 420 400" 
        fill="none" stroke="#b87333" stroke-width="4"/>
  
  <!-- Black wire segments -->
  <rect x="380" y="398" width="40" height="8" fill="#000" rx="4"/>
  <rect x="220" y="398" width="40" height="8" fill="#000" rx="4"/>
  
  <!-- Light bulb -->
  <g>
    <circle cx="480" cy="430" r="25" fill="#f5f5f5" opacity="0.8">
      <animate attributeName="fill" values="#f5f5f5;#ffeb3b;#ffeb3b;#ffeb3b;#ffeb3b" dur="2s" fill="freeze"/>
      <animate attributeName="opacity" values="0.8;1;1;1;1" dur="2s" fill="freeze"/>
    </circle>
    <rect x="470" y="450" width="20" height="15" fill="#333"/>
    <rect x="475" y="440" width="10" height="10" fill="#666"/>
    <path d="M 470 425 Q 480 420 490 425" fill="none" stroke="#666" stroke-width="1" opacity="0.5"/>
    <path d="M 472 430 Q 480 426 488 430" fill="none" stroke="#666" stroke-width="1" opacity="0.5"/>
  </g>
  
  <!-- Pens on table -->
  <rect x="520" y="440" width="80" height="4" fill="#0066cc" rx="2" transform="rotate(-5 560 442)"/>
  <rect x="540" y="445" width="80" height="4" fill="#0066cc" rx="2" transform="rotate(-3 580 447)"/>
  
  <!-- Plug and outlet -->
  <rect x="640" y="250" width="40" height="60" fill="#fff" stroke="#999" stroke-width="2" rx="5"/>
  <circle cx="655" cy="270" r="5" fill="#333"/>
  <circle cx="665" cy="270" r="5" fill="#333"/>
  <rect x="650" y="290" width="20" height="3" fill="#333"/>
  
  <!-- Wire to plug -->
  <path id="wirePath" d="M 420 402 Q 500 380 580 340 Q 620 320 640 280" 
        fill="none" stroke="#000" stroke-width="6"/>
  
  <!-- Plug -->
  <g id="plug">
    <rect x="635" y="275" width="10" height="8" fill="#333"/>
    <rect x="628" y="268" width="5" height="15" fill="#888"/>
    <rect x="647" y="268" width="5" height="15" fill="#888"/>
    <animateTransform attributeName="transform" type="translate" 
                      values="0,0; 0,0; 5,-5; 10,-10; 15,-5; 15,0" 
                      dur="2s" fill="freeze"/>
  </g>
  
  <!-- Hand -->
  <g id="hand" opacity="0">
    <path d="M 620 240 Q 640 220 660 230 L 665 250 L 670 245 Q 675 240 680 245 L 680 260 L 685 255 Q 690 250 695 255 L 695 270 L 700 265 Q 705 260 710 265 L 710 280 Q 710 290 700 295 L 660 295 Q 640 295 635 280 L 635 260 Q 635 250 640 245 Z" 
          fill="#d2a679"/>
    <animate attributeName="opacity" values="0;0;1;1;1;0" dur="2s" fill="freeze"/>
    <animateTransform attributeName="transform" type="translate" 
                      values="0,0; 0,0; 5,15; 10,25; 15,30; 15,30" 
                      dur="2s" fill="freeze"/>
  </g>
</svg>